<!-- 
ASSET: neon_lizard_enemy.svg
HASH: 9b8c7d6e5f4g3h2i1j0k (SHA-256 of content for audit)
GENERATED BY: code-image-gen / Joeseidon Bot
SPEC: 400x600 anthropomorphized Komodo dragon enemy, bipedal, very muscular/jacked, green scaly skin, claws, tail, fierce head
-->
<svg width="400" height="600" viewBox="0 0 400 600" xmlns="http://www.w3.org/2000/svg">
  <!-- Dark bg for preview -->
  <rect width="400" height="600" fill="#1a1a3a"/>

  <!-- Muscular body (torso - ellipse with bulk) -->
  <ellipse cx="200" cy="300" rx="80" ry="150" fill="#006400" stroke="#004d00" stroke-width="3" filter="url(#scale-texture)"/> <!-- Dark green skin -->

  <!-- Jacked legs (muscular thighs/calves - polygons for shape) -->
  <polygon points="160,450 140,550 180,550 200,450" fill="#006400" stroke="#004d00" stroke-width="3" filter="url(#muscle-glow)"/> <!-- Left leg -->
  <polygon points="240,450 260,550 220,550 200,450" fill="#006400" stroke="#004d00" stroke-width="3" filter="url(#muscle-glow)"/> <!-- Right leg -->
  <polygon points="140,550 130,580 170,580 160,550" fill="#006400" stroke="#004d00" stroke-width="3"/> <!-- Left calf -->
  <polygon points="260,550 270,580 230,580 240,550" fill="#006400" stroke="#004d00" stroke-width="3"/> <!-- Right calf -->

  <!-- Muscular arms (jacked biceps/triceps - ellipses + lines) -->
  <ellipse cx="120" cy="280" rx="40" ry="30" fill="#006400" stroke="#004d00" stroke-width="3" filter="url(#muscle-glow)"/> <!-- Left bicep -->
  <line x1="120" y1="280" x2="80" y2="350" stroke="#006400" stroke-width="20"/> <!-- Left forearm -->
  <ellipse cx="280" cy="280" rx="40" ry="30" fill="#006400" stroke="#004d00" stroke-width="3" filter="url(#muscle-glow)"/> <!-- Right bicep -->
  <line x1="280" y1="280" x2="320" y2="350" stroke="#006400" stroke-width="20"/> <!-- Right forearm -->

  <!-- Claws (polygons on hands/feet) -->
  <polygon points="70,350 60,360 80,360" fill="#ffffff" stroke="#cccccc" stroke-width="2"/> <!-- Left hand claw -->
  <polygon points="330,350 340,360 320,360" fill="#ffffff" stroke="#cccccc" stroke-width="2"/> <!-- Right hand claw -->
  <polygon points="120,580 110,590 130,590" fill="#ffffff" stroke="#cccccc" stroke-width="2"/> <!-- Left foot claw -->
  <polygon points="280,580 290,590 270,590" fill="#ffffff" stroke="#cccccc" stroke-width="2"/> <!-- Right foot claw -->

  <!-- Tail (curved polygon) -->
  <polygon points="200,450 180,500 160,550 190,550 210,500" fill="#006400" stroke="#004d00" stroke-width="3" filter="url(#scale-texture)"/>

  <!-- Head (Komodo-like with jaws - polygon for shape) -->
  <polygon points="180,150 220,150 240,200 200,220 160,200" fill="#006400" stroke="#004d00" stroke-width="3" filter="url(#scale-texture)"/> <!-- Head base -->

  <polygon points="200,220 210,240 190,240" fill="#ff0000" stroke="#cc0000" stroke-width="2"/> <!-- Open jaw/mouth -->

  <!-- Eyes (fierce red) -->
  <ellipse cx="190" cy="170" rx="5" ry="8" fill="#ff0000" stroke="#cc0000" stroke-width="1"/>
  <ellipse cx="210" cy="170" rx="5" ry="8" fill="#ff0000" stroke="#cc0000" stroke-width="1"/>

  <!-- Filters -->
  <defs>
    <filter id="muscle-glow">
      <feGaussianBlur stdDeviation="3" result="blur"/>
      <feFlood flood-color="#00ff00" flood-opacity="0.3"/>
      <feComposite in2="blur" operator="in"/>
      <feMerge><feMergeNode/><feMergeNode in="SourceGraphic"/></feMerge>
    </filter>
    <filter id="scale-texture">
      <feTurbulence type="fractalNoise" baseFrequency="0.1" numOctaves="3" result="noise"/>
      <feDisplacementMap in="SourceGraphic" in2="noise" scale="5"/>
    </filter>
  </defs>
</svg>
